<svg width="24" height="24" viewBox="0 0 24 24" fill="none" xmlns="http://www.w3.org/2000/svg">
<g clip-path="url(#clip0_54629_25223)">
<path d="M17.79 10.47V17.79C17.79 20.12 15.9 22 13.58 22H6.21C3.89 22 2 20.11 2 17.79V10.47C2 8.14 3.89 6.26 6.21 6.26H13.58C15.9 6.26 17.79 8.15 17.79 10.47Z" stroke="black" stroke-width="1.75" stroke-linecap="round" stroke-linejoin="round"/>
<path d="M5.5 4V2.25" stroke="black" stroke-width="1.75" stroke-linecap="round" stroke-linejoin="round"/>
<path d="M9.5 4V2.25" stroke="black" stroke-width="1.75" stroke-linecap="round" stroke-linejoin="round"/>
<path d="M13.5 4V2.25" stroke="black" stroke-width="1.75" stroke-linecap="round" stroke-linejoin="round"/>
<path d="M22 13.16C22 15.48 20.11 17.37 17.79 17.37V8.95C20.11 8.95 22 10.83 22 13.16Z" stroke="black" stroke-width="1.75" stroke-linecap="round" stroke-linejoin="round"/>
<path d="M2 12H17.51" stroke="black" stroke-width="1.75" stroke-linecap="round" stroke-linejoin="round"/>
</g>
<defs>
<clipPath id="clip0_54629_25223">
<rect width="24" height="24" fill="white"/>
</clipPath>
</defs>
</svg>
