<svg width="200" height="200" viewBox="0 0 200 200" fill="none" xmlns="http://www.w3.org/2000/svg">
<path d="M25 118.75C25 112.956 26.1068 107.389 28.3203 102.051C30.5339 96.7122 33.6914 91.9596 37.793 87.793L59.9609 65.7227L121.777 127.539L99.707 149.707C95.6055 153.809 90.8854 156.966 85.5469 159.18C80.2083 161.393 74.6094 162.5 68.75 162.5C63.9974 162.5 59.4076 161.784 54.9805 160.352C50.5534 158.919 46.4193 156.738 42.5781 153.809L10.6445 185.645L1.85547 176.855L33.6914 144.922C30.8268 141.146 28.6784 137.044 27.2461 132.617C25.8138 128.19 25.0651 123.568 25 118.75ZM68.75 150C72.9167 150 76.888 149.219 80.6641 147.656C84.4401 146.094 87.8255 143.815 90.8203 140.82L104.102 127.539L59.9609 83.3984L46.6797 96.6797C43.75 99.6094 41.5039 102.962 39.9414 106.738C38.3789 110.514 37.5651 114.518 37.5 118.75C37.5 123.047 38.3138 127.083 39.9414 130.859C41.569 134.635 43.7826 137.956 46.582 140.82C49.3815 143.685 52.7018 145.931 56.543 147.559C60.3841 149.186 64.4531 150 68.75 150ZM153.809 42.5781C156.673 46.3542 158.822 50.4557 160.254 54.8828C161.686 59.3099 162.435 63.9323 162.5 68.75C162.5 74.5443 161.393 80.1107 159.18 85.4492C156.966 90.7878 153.809 95.5404 149.707 99.707L127.539 121.777L65.7227 59.9609L87.793 37.793C91.8945 33.6914 96.6146 30.5339 101.953 28.3203C107.292 26.1068 112.891 25 118.75 25C123.503 25 128.092 25.7161 132.52 27.1484C136.947 28.5807 141.081 30.7617 144.922 33.6914L176.855 1.85547L185.645 10.6445L153.809 42.5781ZM140.82 90.8203C143.75 87.8906 145.996 84.5378 147.559 80.7617C149.121 76.9857 149.935 72.9818 150 68.75C150 64.4531 149.186 60.4167 147.559 56.6406C145.931 52.8646 143.685 49.5768 140.82 46.7773C137.956 43.9779 134.635 41.7318 130.859 40.0391C127.083 38.3464 123.047 37.5 118.75 37.5C114.583 37.5 110.612 38.2812 106.836 39.8438C103.06 41.4062 99.6745 43.6849 96.6797 46.6797L83.3984 59.9609L127.539 104.102L140.82 90.8203Z" fill="black"/>
</svg>
