<svg width="200" height="200" viewBox="0 0 200 200" fill="none" xmlns="http://www.w3.org/2000/svg">
<path d="M177.8 32.8C179.125 31.3782 179.846 29.4978 179.812 27.5548C179.777 25.6118 178.99 23.7579 177.616 22.3838C176.242 21.0096 174.388 20.2225 172.445 20.1882C170.502 20.154 168.622 20.8752 167.2 22.2L142.74 46.65C134.97 41.3541 125.595 38.9367 116.233 39.8148C106.871 40.693 98.1096 44.8116 91.46 51.46L88.46 54.46C87.0752 55.8437 85.9766 57.4868 85.2271 59.2953C84.4776 61.1038 84.0918 63.0423 84.0918 65C84.0918 66.9577 84.4776 68.8962 85.2271 70.7047C85.9766 72.5132 87.0752 74.1562 88.46 75.54L124.46 111.54C127.254 114.334 131.044 115.903 134.995 115.903C138.946 115.903 142.736 114.334 145.53 111.54L148.53 108.54C155.18 101.892 159.3 93.1305 160.18 83.7685C161.06 74.4065 158.645 65.031 153.35 57.26L177.8 32.8ZM75.54 88.46C72.7458 85.6662 68.9563 84.0968 65.005 84.0968C61.0537 84.0968 57.2642 85.6662 54.47 88.46L51.47 91.46C44.8216 98.1095 40.703 106.871 39.8248 116.233C38.9467 125.595 41.3642 134.97 46.66 142.74L22.2 167.2C21.4631 167.887 20.8721 168.715 20.4622 169.635C20.0523 170.555 19.8319 171.548 19.8141 172.555C19.7963 173.562 19.9816 174.562 20.3588 175.496C20.736 176.43 21.2974 177.278 22.0096 177.99C22.7218 178.703 23.5702 179.264 24.504 179.641C25.4379 180.018 26.4382 180.204 27.4452 180.186C28.4523 180.168 29.4454 179.948 30.3654 179.538C31.2854 179.128 32.1134 178.537 32.8 177.8L57.26 153.34C65.0288 158.637 74.403 161.056 83.7649 160.18C93.1268 159.304 101.889 155.187 108.54 148.54L111.54 145.54C112.925 144.156 114.023 142.513 114.773 140.705C115.522 138.896 115.908 136.958 115.908 135C115.908 133.042 115.522 131.104 114.773 129.295C114.023 127.487 112.925 125.844 111.54 124.46L75.54 88.46Z" fill="black"/>
</svg>
