<svg width="200" height="200" viewBox="0 0 200 200" fill="none" xmlns="http://www.w3.org/2000/svg">
<path d="M177.8 22.2C179.205 23.6062 179.993 25.5125 179.993 27.5C179.993 29.4875 179.205 31.3937 177.8 32.8L163.35 47.26C168.643 55.029 171.059 64.4018 170.181 73.7615C169.303 83.1212 165.186 91.8811 158.54 98.53L155.54 101.53L155.51 101.56L152.42 104.65C150.451 106.616 147.782 107.721 145 107.721C142.217 107.721 139.549 106.616 137.58 104.65L95.35 62.42C94.3749 61.445 93.6013 60.2874 93.0736 59.0134C92.5459 57.7394 92.2742 56.374 92.2742 54.995C92.2742 53.616 92.5459 52.2506 93.0736 50.9766C93.6013 49.7026 94.3749 48.545 95.35 47.57L101.46 41.47C108.113 34.8268 116.874 30.7117 126.234 29.8337C135.595 28.9557 144.968 31.3698 152.74 36.66L167.2 22.2C168.606 20.7955 170.512 20.0066 172.5 20.0066C174.487 20.0066 176.394 20.7955 177.8 22.2ZM87.8 84.7C89.2045 86.1062 89.9934 88.0125 89.9934 90C89.9934 91.9875 89.2045 93.8937 87.8 95.3L75.1 108.02L92 124.92L104.7 112.2C105.392 111.483 106.219 110.912 107.134 110.518C108.049 110.125 109.033 109.917 110.028 109.908C111.024 109.899 112.012 110.088 112.934 110.465C113.856 110.842 114.693 111.398 115.398 112.102C116.102 112.806 116.66 113.643 117.037 114.565C117.415 115.486 117.605 116.474 117.597 117.469C117.589 118.465 117.382 119.45 116.99 120.365C116.597 121.28 116.026 122.108 115.31 122.8L102.55 135.57C104.889 138.43 106.082 142.057 105.897 145.748C105.712 149.438 104.163 152.928 101.55 155.54L98.55 158.54C91.8992 165.187 83.1368 169.304 73.7749 170.18C64.413 171.056 55.0388 168.637 47.27 163.34L32.8 177.8C31.3782 179.125 29.4978 179.846 27.5548 179.812C25.6118 179.777 23.7579 178.99 22.3838 177.616C21.0096 176.242 20.2225 174.388 20.1882 172.445C20.154 170.502 20.8752 168.622 22.2 167.2L36.65 152.74C31.3568 144.971 28.9408 135.598 29.8189 126.238C30.6971 116.879 34.8141 108.119 41.46 101.47L44.46 98.47C47.0722 95.8569 50.5621 94.3077 54.2523 94.1229C57.9426 93.9381 61.5698 95.131 64.43 97.47L77.2 84.7C78.6062 83.2955 80.5125 82.5066 82.5 82.5066C84.4875 82.5066 86.3937 83.2955 87.8 84.7Z" fill="black"/>
</svg>
