<svg width="200" height="200" viewBox="0 0 200 200" fill="none" xmlns="http://www.w3.org/2000/svg">
<path d="M126.953 117.285L100.488 143.75L109.277 152.539L87.207 174.707C83.1055 178.809 78.3854 181.966 73.0469 184.18C67.7083 186.393 62.1094 187.5 56.25 187.5C51.4974 187.5 46.9076 186.784 42.4805 185.352C38.0534 183.919 33.9193 181.738 30.0781 178.809L10.6445 198.145L1.85547 189.355L21.1914 169.922C18.3268 166.146 16.1784 162.044 14.7461 157.617C13.3138 153.19 12.5651 148.568 12.5 143.75C12.5 137.956 13.6068 132.389 15.8203 127.051C18.0339 121.712 21.1914 116.96 25.293 112.793L47.4609 90.7227L56.25 99.5117L82.7148 73.0469L91.6016 81.8359L65.0391 108.398L91.6016 134.961L118.164 108.398L126.953 117.285ZM56.25 175C60.4167 175 64.388 174.219 68.1641 172.656C71.9401 171.094 75.3255 168.815 78.3203 165.82L91.6016 152.539L47.4609 108.398L34.1797 121.68C31.25 124.609 29.0039 127.962 27.4414 131.738C25.8789 135.514 25.0651 139.518 25 143.75C25 148.047 25.8138 152.083 27.4414 155.859C29.069 159.635 31.2826 162.956 34.082 165.82C36.8815 168.685 40.2018 170.931 44.043 172.559C47.8841 174.186 51.9531 175 56.25 175ZM178.809 30.0781C181.673 33.8542 183.822 37.9557 185.254 42.3828C186.686 46.8099 187.435 51.4323 187.5 56.25C187.5 62.0443 186.393 67.6107 184.18 72.9492C181.966 78.2878 178.809 83.0404 174.707 87.207L152.539 109.277L90.7227 47.4609L112.793 25.293C116.895 21.1914 121.615 18.0339 126.953 15.8203C132.292 13.6068 137.891 12.5 143.75 12.5C148.503 12.5 153.092 13.2161 157.52 14.6484C161.947 16.0807 166.081 18.2617 169.922 21.1914L189.355 1.85547L198.145 10.6445L178.809 30.0781ZM165.82 78.3203C168.75 75.3906 170.996 72.0378 172.559 68.2617C174.121 64.4857 174.935 60.4818 175 56.25C175 51.9531 174.186 47.9167 172.559 44.1406C170.931 40.3646 168.685 37.0768 165.82 34.2773C162.956 31.4779 159.635 29.2318 155.859 27.5391C152.083 25.8464 148.047 25 143.75 25C139.583 25 135.612 25.7812 131.836 27.3438C128.06 28.9062 124.674 31.1849 121.68 34.1797L108.398 47.4609L152.539 91.6016L165.82 78.3203Z" fill="black"/>
</svg>
