<svg width="24" height="24" viewBox="0 0 24 24" fill="none" xmlns="http://www.w3.org/2000/svg">
<path d="M12 2.5C6.47833 2.5 2 6.86116 2 12.2402C2 16.5437 4.865 20.1946 8.83917 21.4828C9.33833 21.5729 9.5 21.2709 9.5 21.0144V19.2011C6.71833 19.7904 6.13917 18.0518 6.13917 18.0518C5.68417 16.926 5.02833 16.6265 5.02833 16.6265C4.12083 16.0218 5.0975 16.0348 5.0975 16.0348C6.10167 16.1029 6.63 17.0388 6.63 17.0388C7.52167 18.5274 8.96917 18.0972 9.54 17.8481C9.62917 17.219 9.88833 16.7888 10.175 16.5461C7.95417 16.2986 5.61917 15.4633 5.61917 11.7321C5.61917 10.6679 6.01 9.79944 6.64917 9.11763C6.54583 8.87169 6.20333 7.88063 6.74667 6.53973C6.74667 6.53973 7.58667 6.27837 9.4975 7.5381C10.295 7.32219 11.15 7.21424 12 7.21018C12.85 7.21424 13.7058 7.32219 14.505 7.5381C16.4142 6.27837 17.2525 6.53973 17.2525 6.53973C17.7967 7.88144 17.4542 8.8725 17.3508 9.11763C17.9925 9.79944 18.38 10.6687 18.38 11.7321C18.38 15.4731 16.0408 16.2969 13.8142 16.538C14.1725 16.84 14.5 17.4325 14.5 18.3416V21.0144C14.5 21.2734 14.66 21.5777 15.1675 21.482C19.1383 20.1922 22 16.5421 22 12.2402C22 6.86116 17.5225 2.5 12 2.5Z" fill="black"/>
</svg>
