<svg width="24" height="24" viewBox="0 0 24 24" fill="none" xmlns="http://www.w3.org/2000/svg">
<path d="M11.9984 2C9.28279 2 8.9411 2.01139 7.87537 2.06022C7.04622 2.07708 6.22593 2.23448 5.4494 2.52572C4.78198 2.77533 4.17761 3.16874 3.67914 3.67806C3.17044 4.17771 2.77628 4.78191 2.52392 5.44889C2.23266 6.22615 2.07585 7.04735 2.0602 7.87728C2.01302 8.94336 2 9.28353 2 12C2 14.7165 2.01139 15.055 2.0602 16.1227C2.07705 16.9521 2.2344 17.7727 2.52555 18.5495C2.7763 19.2165 3.16942 19.8208 3.67751 20.3203C4.17657 20.8297 4.7807 21.2241 5.44777 21.4759C6.22499 21.7665 7.04579 21.9233 7.87537 21.9398C8.9411 21.9886 9.28116 22 11.9967 22C14.7123 22 15.0508 21.9886 16.1181 21.9398C16.9477 21.9233 17.7685 21.7665 18.5457 21.4759C19.2106 21.2179 19.8144 20.8242 20.3187 20.3198C20.8229 19.8153 21.2166 19.2113 21.4745 18.5462C21.764 17.769 21.9213 16.9487 21.9398 16.1195C21.987 15.0534 22 14.7132 22 11.9967C22 9.28027 21.987 8.9401 21.9398 7.87402C21.9213 7.04425 21.764 6.22343 21.4745 5.44564C21.2233 4.77843 20.8296 4.17408 20.3209 3.6748C19.8227 3.16511 19.2182 2.77164 18.5506 2.52246C17.7713 2.23161 16.9482 2.07531 16.1165 2.06022C15.0491 2.01139 14.7107 2 11.9951 2H11.9984ZM11.1002 3.80176H11.9984C14.6668 3.80176 14.9824 3.81152 16.0368 3.86035C16.6707 3.86757 17.2987 3.98374 17.8933 4.20378C18.3274 4.36419 18.7199 4.62005 19.042 4.95247C19.3736 5.2752 19.6293 5.66772 19.7904 6.10156C20.0104 6.69634 20.1265 7.32452 20.1337 7.95866C20.1826 9.01172 20.1923 9.3291 20.1923 11.9984C20.1923 14.6676 20.1826 14.9834 20.1337 16.0381C20.1267 16.6717 20.0106 17.2994 19.7904 17.8936C19.6239 18.3245 19.3691 18.7158 19.0424 19.0424C18.7156 19.3689 18.3242 19.6235 17.8933 19.7897C17.2991 20.0114 16.6709 20.1282 16.0368 20.1348C14.9841 20.1836 14.6668 20.1934 11.9984 20.1934C9.32997 20.1934 9.01269 20.1836 7.95835 20.1348C7.32432 20.127 6.69634 20.0103 6.10185 19.7897C5.66733 19.63 5.27421 19.3747 4.95151 19.0426C4.61978 18.7203 4.36457 18.3276 4.20469 17.8936C3.98416 17.2989 3.86748 16.6707 3.85975 16.0365C3.81256 14.9818 3.8028 14.666 3.8028 11.9951C3.8028 9.32422 3.81256 9.01009 3.85975 7.9554C3.86651 7.32108 3.98322 6.69273 4.20469 6.09831C4.36457 5.66422 4.61978 5.27155 4.95151 4.94922C5.27446 4.6171 5.66747 4.36131 6.10185 4.20052C6.69653 3.98061 7.32439 3.86391 7.95835 3.85547C8.8809 3.81478 9.23723 3.80176 11.1002 3.80013V3.80176ZM17.3335 5.46191C17.096 5.46191 16.8638 5.5324 16.6663 5.66446C16.4688 5.79652 16.3149 5.98421 16.224 6.20379C16.1332 6.42337 16.1095 6.66497 16.156 6.89802C16.2024 7.13107 16.317 7.3451 16.485 7.51302C16.6531 7.68094 16.8673 7.79521 17.1003 7.84138C17.3333 7.88754 17.5748 7.86352 17.7942 7.77236C18.0136 7.68119 18.201 7.52698 18.3328 7.32924C18.4645 7.13149 18.5347 6.8991 18.5343 6.66146C18.5343 6.50379 18.5033 6.34768 18.4429 6.20204C18.3825 6.0564 18.2941 5.92409 18.1825 5.81268C18.071 5.70127 17.9386 5.61294 17.7929 5.55276C17.6473 5.49257 17.4912 5.4617 17.3335 5.46191ZM11.9984 6.86491C10.9831 6.86491 9.99058 7.16608 9.1464 7.73033C8.30221 8.29458 7.64425 9.09657 7.25571 10.0349C6.86717 10.9732 6.76552 12.0057 6.96359 13.0018C7.16166 13.9979 7.65057 14.9129 8.3685 15.6311C9.08642 16.3492 10.0011 16.8383 10.9969 17.0364C11.9927 17.2346 13.0248 17.1329 13.9628 16.7442C14.9009 16.3555 15.7026 15.6974 16.2667 14.8529C16.8307 14.0084 17.1318 13.0156 17.1318 12C17.1314 10.6382 16.5904 9.33234 15.6278 8.36942C14.6652 7.4065 13.3597 6.86534 11.9984 6.86491V6.86491ZM11.9984 8.66667C12.6576 8.6657 13.3024 8.86038 13.851 9.22606C14.3996 9.59174 14.8275 10.112 15.0804 10.721C15.3334 11.33 15.4001 12.0004 15.2721 12.6473C15.144 13.2942 14.8271 13.8886 14.3612 14.3553C13.8954 14.822 13.3017 15.1399 12.6551 15.2689C12.0086 15.3979 11.3384 15.3322 10.7292 15.0801C10.12 14.8279 9.5993 14.4007 9.23293 13.8524C8.86656 13.3041 8.67101 12.6595 8.67101 12C8.67273 11.1179 9.02389 10.2725 9.64757 9.64891C10.2712 9.02533 11.1166 8.67447 11.9984 8.67318V8.66667Z" fill="black"/>
</svg>
