<svg width="25" height="25" viewBox="0 0 25 25" fill="none" xmlns="http://www.w3.org/2000/svg">
<path d="M12.1597 8.39612C13.2206 8.39612 14.238 8.81755 14.9881 9.56769C15.7383 10.3178 16.1597 11.3353 16.1597 12.3961C16.1597 13.457 15.7383 14.4744 14.9881 15.2245C14.238 15.9747 13.2206 16.3961 12.1597 16.3961C11.0988 16.3961 10.0814 15.9747 9.33126 15.2245C8.58112 14.4744 8.15969 13.457 8.15969 12.3961C8.15969 11.3353 8.58112 10.3178 9.33126 9.56769C10.0814 8.81755 11.0988 8.39612 12.1597 8.39612ZM12.1597 10.3961C11.6293 10.3961 11.1206 10.6068 10.7455 10.9819C10.3704 11.357 10.1597 11.8657 10.1597 12.3961C10.1597 12.9266 10.3704 13.4353 10.7455 13.8103C11.1206 14.1854 11.6293 14.3961 12.1597 14.3961C12.6901 14.3961 13.1988 14.1854 13.5739 13.8103C13.949 13.4353 14.1597 12.9266 14.1597 12.3961C14.1597 11.8657 13.949 11.357 13.5739 10.9819C13.1988 10.6068 12.6901 10.3961 12.1597 10.3961ZM10.1597 22.3961C9.90969 22.3961 9.69969 22.2161 9.65969 21.9761L9.28969 19.3261C8.65969 19.0761 8.11969 18.7361 7.59969 18.3361L5.10969 19.3461C4.88969 19.4261 4.61969 19.3461 4.49969 19.1261L2.49969 15.6661C2.36969 15.4461 2.42969 15.1761 2.61969 15.0261L4.72969 13.3661L4.65969 12.3961L4.72969 11.3961L2.61969 9.76612C2.42969 9.61612 2.36969 9.34612 2.49969 9.12612L4.49969 5.66612C4.61969 5.44612 4.88969 5.35612 5.10969 5.44612L7.59969 6.44612C8.11969 6.05612 8.65969 5.71612 9.28969 5.46612L9.65969 2.81612C9.69969 2.57612 9.90969 2.39612 10.1597 2.39612H14.1597C14.4097 2.39612 14.6197 2.57612 14.6597 2.81612L15.0297 5.46612C15.6597 5.71612 16.1997 6.05612 16.7197 6.44612L19.2097 5.44612C19.4297 5.35612 19.6997 5.44612 19.8197 5.66612L21.8197 9.12612C21.9497 9.34612 21.8897 9.61612 21.6997 9.76612L19.5897 11.3961L19.6597 12.3961L19.5897 13.3961L21.6997 15.0261C21.8897 15.1761 21.9497 15.4461 21.8197 15.6661L19.8197 19.1261C19.6997 19.3461 19.4297 19.4361 19.2097 19.3461L16.7197 18.3461C16.1997 18.7361 15.6597 19.0761 15.0297 19.3261L14.6597 21.9761C14.6197 22.2161 14.4097 22.3961 14.1597 22.3961H10.1597ZM11.4097 4.39612L11.0397 7.00612C9.83969 7.25612 8.77969 7.89612 8.00969 8.78612L5.59969 7.74612L4.84969 9.04612L6.95969 10.5961C6.55969 11.7661 6.55969 13.0361 6.95969 14.1961L4.83969 15.7561L5.58969 17.0561L8.01969 16.0161C8.78969 16.8961 9.83969 17.5361 11.0297 17.7761L11.3997 20.3961H12.9197L13.2897 17.7861C14.4797 17.5361 15.5297 16.8961 16.2997 16.0161L18.7297 17.0561L19.4797 15.7561L17.3597 14.2061C17.7597 13.0361 17.7597 11.7661 17.3597 10.5961L19.4697 9.04612L18.7197 7.74612L16.3097 8.78612C15.5397 7.89612 14.4797 7.25612 13.2797 7.01612L12.9097 4.39612H11.4097Z" fill="black"/>
</svg>
